<svg width="24" height="24" viewBox="0 0 24 24" fill="none" xmlns="http://www.w3.org/2000/svg">
<path fill-rule="evenodd" clip-rule="evenodd" d="M2.25 6.50029V17.1616C2.25 18.282 3.06734 19.0271 4.07333 19.6308C5.09172 20.2419 6.80103 20.964 8.69413 21.7636C10.1132 22.3636 11.028 22.7503 12 22.7503C12.972 22.7503 13.8868 22.3636 15.3058 21.7637C17.1988 20.9641 18.9083 20.2419 19.9267 19.6308C20.9327 19.0271 21.75 18.282 21.75 17.1616V6.50029C21.75 6.30994 21.6791 6.13616 21.5623 6.00391L18.2686 7.60302L15.3474 9.01655C13.4796 9.92038 12.7576 10.2503 12 10.2503C11.2424 10.2503 10.5204 9.92038 8.6526 9.01655L5.7314 7.60302L2.43775 6.00391C2.32091 6.13616 2.25 6.30994 2.25 6.50029ZM6.33557 11.3294C5.96509 11.1441 5.51459 11.2943 5.32934 11.6648C5.1441 12.0353 5.29427 12.4858 5.66475 12.671L7.66475 13.671C8.03524 13.8563 8.48574 13.7061 8.67098 13.3356C8.85623 12.9651 8.70606 12.5146 8.33557 12.3294L6.33557 11.3294Z" fill="#126A19"/>
<path fill-rule="evenodd" clip-rule="evenodd" d="M12 1.25049C10.8275 1.25049 9.75551 1.75899 8.19088 2.50115L5.07878 3.97554C4.35402 4.31881 3.715 4.62147 3.26541 4.91878C2.81527 5.21645 2.25 5.70469 2.25 6.50049C2.25 7.29629 2.81527 7.78453 3.26541 8.0822C3.71499 8.3795 4.35401 8.68216 5.07876 9.02543L8.19089 10.4999C9.75551 11.242 10.8275 11.7505 12 11.7505C13.1725 11.7505 14.2445 11.242 15.8091 10.4999L18.9212 9.02545C19.646 8.68218 20.285 8.37951 20.7346 8.0822C21.1847 7.78453 21.75 7.29629 21.75 6.50049C21.75 5.70469 21.1847 5.21645 20.7346 4.91878C20.285 4.62147 19.646 4.3188 18.9212 3.97553L15.8091 2.50115C14.2445 1.75899 13.1725 1.25049 12 1.25049ZM8.84253 4.31447C10.6848 3.44173 11.3304 3.16065 12.0001 3.16065C12.6131 3.16065 13.2059 3.39617 14.7149 4.10542L7.06869 7.8483L5.99436 7.33935C5.18366 6.9553 4.67577 6.71199 4.35742 6.50155C4.67577 6.29112 5.18366 6.04781 5.99436 5.66376L8.84253 4.31447ZM9.28528 8.89769L16.9315 5.15481L18.0058 5.66376C18.8165 6.04781 19.3244 6.29112 19.6427 6.50155C19.3244 6.71199 18.8165 6.9553 18.0058 7.33935L15.1576 8.68864C13.3154 9.56138 12.6698 9.84246 12.0001 9.84246C11.387 9.84246 10.7942 9.60694 9.28528 8.89769Z" fill="#126A19"/>
</svg>
